<svg width="16" height="16" viewBox="0 0 16 16" fill="none" xmlns="http://www.w3.org/2000/svg">
<path d="M11.6406 7.23127L5.64032 2.23105C5.43634 2.06233 5.17381 1.98131 4.91022 2.00574C4.64664 2.03017 4.40347 2.15806 4.23398 2.3614C4.06448 2.56474 3.98247 2.82696 4.00591 3.09063C4.02935 3.35431 4.15632 3.59796 4.35902 3.76822L9.43735 7.99988L4.35902 12.2316C4.15554 12.4016 4.02786 12.6454 4.00405 12.9095C3.98023 13.1736 4.06222 13.4363 4.23199 13.64C4.40177 13.8437 4.64546 13.9717 4.90952 13.9958C5.17358 14.0199 5.43643 13.9383 5.64032 13.7687L11.6406 8.76843C11.7531 8.67444 11.8436 8.55689 11.9057 8.42408C11.9678 8.29128 12 8.14646 12 7.99985C12 7.85324 11.9678 7.70842 11.9057 7.57562C11.8436 7.44282 11.7531 7.32526 11.6406 7.23127Z" fill="white"/>
</svg>
